<?xml version="1.0" encoding="UTF-8"?>
<svg width="240px" height="39px" viewBox="0 0 240 39" version="1.1" xmlns="http://www.w3.org/2000/svg" xmlns:xlink="http://www.w3.org/1999/xlink">
    <title>logo</title>
    <g id="Page-1" stroke="none" stroke-width="1" fill="none" fill-rule="evenodd">
        <g id="logo" fill="#FFFFFF" fill-rule="nonzero">
            <path d="M27.967,0.878993117 C20.242,0.875 12.182,2.615 4.047,4.872 C3.014,5.08 2.006,5.756 1.473,6.592 C0.983,7.38 0.805,8.171 0.652,9 C-0.138,13.428 -0.042,17.776 0.122,22.594 C0.158,23.697 0.322,25.004 0.837,25.799 C1.375,26.602 2.297,27.112 3.398,27.279 C4.80460487,27.4853173 6.21561964,27.6603605 7.63,27.804 L7.318,36.502 C7.27,37.194 7.608,37.769 8.028,38.1 C8.404,38.386 8.823,38.513 9.253,38.545 C10.113,38.61 11.122,38.242 11.623,37.288 C13.818,33.064 15.195,31.199 17.94,28.393 C25.098,28.569 31.347,28.171 38.422,27.648 C40.923,27.583 42.64,25.538 43.094,23.905 C44.451,19.673 44.662,14.449 44.806,9.168 C44.867,7.075 44.141,5.02 42.856,3.934 C41.634,2.943 40.154,2.584 38.798,2.216 C35.031,1.363 31.263,0.905 27.967,0.878993117 Z M38.257,4.189 C39.615,4.558 40.812,4.913 41.567,5.526 C42.827,6.865 42.785,7.756 42.767,9.201 C42.625,14.323 42.379,19.294 41.223,23.061 C40.725,24.466 39.857,25.466 38.217,25.617 C31.009,26.15 24.755,26.562 17.51,26.356 C17.2248567,26.3468763 16.9486575,26.4561976 16.747,26.658 C13.703,29.732 12.146,31.868 9.826,36.334 C9.772,36.436 9.655,36.498 9.511,36.509 C9.414,36.504 9.375,36.429 9.369,36.361 L9.683,26.929 C9.702,26.42 9.282,25.934 8.776,25.879 C7.08411582,25.7174052 5.39684792,25.5106649 3.716,25.259 C2.99,25.148 2.722,24.949 2.523,24.653 C2.177,23.828 2.185,23.318 2.158,22.525 C1.996,17.75 1.916,13.577 2.649,9.425 C2.717,8.811 2.947,8.183 3.191,7.658 C3.595,7.026 4.214,6.933 4.835,6.761 C12.791,4.564 20.575,2.921 27.903,2.916 C31.495,3.046 35.267,3.406 38.257,4.189 L38.257,4.189 Z M10.778,12.279 C9.682,13.592 9.791,15.375 10.638,16.569 C11.08,17.194 11.77,17.697 12.61,17.811 C13.701,17.901 14.393,17.459 15.14,16.951 C16.493,15.775 16.63,13.723 15.601,12.241 C15.077,11.486 14.239,11.033 13.383,11.001 C12.211,11.013 11.415,11.536 10.778,12.278 L10.778,12.279 Z M22.634,11.207 C21.542,11.242 20.659,11.998 20.12,12.814 C19.503,13.747 19.143,14.915 19.642,16.06 C20.602,18.263 23.919,18.236 25.242,15.997 C25.852,14.965 25.696,13.792 25.242,12.941 C24.79,12.091 24.106,11.398 23.111,11.239 C22.9533915,11.2130835 22.7936579,11.2023676 22.634,11.207 L22.634,11.207 Z M32.259,11.414 C31.919,11.406 31.569,11.438 31.241,11.525 C29.929,11.875 28.812,13.229 28.981,14.962 C29.067,15.834 29.468,16.684 30.191,17.27 C30.914,17.855 31.964,18.117 33.071,17.89 C34.343,17.63 35.131,16.605 35.394,15.615 C35.657,14.625 35.591,13.616 34.98,12.798 C34.3357576,11.941322 33.3317623,11.4304655 32.26,11.414 L32.259,11.414 Z M13.294,13.037 C13.539,13.039 13.732,13.117 13.931,13.403 C14.376,14.045 14.252,15.018 13.803,15.408 C13.356,15.798 13.077,15.832 12.881,15.806 C12.685,15.779 12.486,15.644 12.308,15.392 C11.968,14.912 11.868,14.136 12.315,13.582 C12.553,13.266 12.99,13.069 13.295,13.037 L13.294,13.037 Z M22.777,13.26 C22.815,13.266 23.241,13.513 23.445,13.896 C23.649,14.279 23.687,14.635 23.493,14.962 C22.916,15.938 21.689,15.674 21.503,15.249 C21.433,15.087 21.486,14.436 21.823,13.929 C22.158,13.42 22.58,13.229 22.777,13.259 L22.777,13.26 Z M33.341,14.008 C33.403,14.091 33.554,14.648 33.437,15.09 C33.319,15.532 33.127,15.805 32.657,15.901 C32.055,16.025 31.717,15.901 31.464,15.694 C31.21,15.489 31.039,15.142 31.002,14.771 C30.912,13.851 31.242,13.638 31.766,13.498 C32.376,13.348 33.066,13.61 33.341,14.008 L33.341,14.008 Z" id="Shape"></path>
            <path d="M57.61,4.996 C57.626,4.736 57.721,4.502 57.897,4.295 C58.0705693,4.08937514 58.329097,3.97504763 58.598,3.985 L65.424,3.985 C65.654,3.985 65.891,4.081 66.136,4.272 C66.3689593,4.4392542 66.5061826,4.70922618 66.504,4.996 L66.504,15.889 L77.925,15.889 L77.925,4.996 C77.925,4.72 78.021,4.483 78.212,4.284 C78.404,4.084 78.652,3.984 78.959,3.984 L85.693,3.984 C85.999,3.984 86.267,4.061 86.497,4.214 C86.727,4.368 86.842,4.613 86.842,4.95 L86.842,37.1 C86.842,37.437 86.742,37.69 86.542,37.858 C86.344,38.027 86.083,38.111 85.762,38.111 L78.959,38.111 C78.653,38.111 78.404,38.027 78.212,37.858 C78.021,37.69 77.925,37.438 77.925,37.1 L77.925,24.047 L66.504,24.047 L66.504,37.1 C66.504,37.422 66.4,37.67 66.194,37.847 C65.987,38.023 65.707,38.111 65.354,38.111 L58.598,38.111 C57.955,38.111 57.626,37.812 57.61,37.215 L57.61,4.996 Z M120.485,37.721 C120.286,37.889 120.075,37.996 119.853,38.042 C119.645591,38.0867075 119.434165,38.110162 119.222,38.112 L115.752,38.112 C115.476,38.112 115.238,38.062 115.039,37.962 C114.839,37.862 114.671,37.728 114.533,37.56 C114.391836,37.3854835 114.276026,37.1919053 114.189,36.985 C114.096399,36.7688269 114.019532,36.5462479 113.959,36.319 L113.247,33.377 C113.017,33.852 112.684,34.392 112.247,34.997 C111.7742,35.6390444 111.213363,36.2113274 110.581,36.697 C109.907,37.227 109.102,37.671 108.168,38.031 C107.233,38.391 106.161,38.571 104.95,38.571 C103.204,38.571 101.618,38.234 100.193,37.56 C98.7978722,36.9081481 97.5566336,35.9681876 96.551,34.802 C95.548,33.638 94.77,32.278 94.219,30.722 C93.667,29.168 93.391,27.509 93.391,25.748 L93.391,10.695 C93.391,10.113 93.518,9.673 93.771,9.374 C94.023,9.075 94.425,8.926 94.977,8.926 L100.285,8.926 C100.945,8.926 101.396,9.036 101.641,9.259 C101.886,9.481 102.009,9.914 102.009,10.557 L102.009,25.517 C102.009,26.177 102.159,26.801 102.457,27.391 C102.756,27.981 103.15,28.501 103.641,28.953 C104.131,29.405 104.686,29.762 105.307,30.022 C105.927,30.282 106.559,30.412 107.203,30.412 C107.754,30.412 108.325,30.282 108.915,30.022 C109.508891,29.7586668 110.058938,29.4059087 110.546,28.976 C111.044,28.54 111.454,28.026 111.776,27.436 C112.098,26.846 112.258,26.222 112.258,25.564 L112.258,10.626 C112.258,10.366 112.308,10.106 112.408,9.845 C112.508,9.585 112.657,9.385 112.856,9.247 C113.055,9.125 113.243,9.041 113.419,8.995 C113.595,8.949 113.799,8.925 114.028,8.925 L119.222,8.925 C119.88,8.925 120.355,9.087 120.646,9.408 C120.937,9.73 121.083,10.159 121.083,10.695 L121.083,36.411 C121.083,36.701 121.018,36.97 120.888,37.215 C120.758,37.46 120.578,37.652 120.348,37.789 L120.485,37.721 L120.485,37.721 Z M147.166,34.549 C146.752,34.963 146.296,35.407 145.799,35.882 C145.301,36.357 144.753,36.802 144.156,37.215 C143.555086,37.6306306 142.907285,37.9739985 142.226,38.238 C141.514316,38.5101659 140.757922,38.6465202 139.996,38.6402233 C137.913,38.6402233 135.994,38.25 134.239,37.468 C132.528235,36.7173265 130.988019,35.6265523 129.712,34.262 C128.448,32.906 127.46,31.309 126.748,29.47 C126.035,27.632 125.679,25.656 125.679,23.541 C125.679,21.411 126.035,19.431 126.748,17.601 C127.46,15.771 128.448,14.177 129.712,12.821 C130.986515,11.4577442 132.527318,10.3706392 134.239,9.627 C135.994,8.853 137.913,8.466 139.996,8.466 C140.839,8.466 141.609,8.589 142.306,8.834 C142.97856,9.06701314 143.619229,9.38348438 144.213,9.776 C144.788,10.159 145.316,10.592 145.799,11.074 C146.281,11.557 146.737,12.028 147.166,12.488 L147.166,1.985 C147.166,1.495 147.316,1.082 147.614,0.745 C147.913,0.407 148.361,0.239 148.959,0.239 L154.129,0.239 C154.329,0.239 154.539,0.281 154.761,0.365 C154.983,0.45 155.186,0.568 155.371,0.722 C155.554,0.875 155.703,1.059 155.818,1.273 C155.933,1.488 155.991,1.725 155.991,1.985 L155.991,36.342 C155.991,37.522 155.371,38.112 154.129,38.112 L149.625,38.112 C149.319,38.112 149.081,38.072 148.913,37.996 C148.746144,37.9211099 148.599959,37.8068387 148.487,37.663 C148.358998,37.4943463 148.254695,37.3089572 148.177,37.112 C148.06867,36.8525492 147.953968,36.5958047 147.833,36.342 L147.166,34.549 L147.166,34.549 Z M133.952,23.541 C133.944319,24.5073972 134.103662,25.4678563 134.423,26.38 C134.737,27.26 135.185,28.023 135.768,28.666 C136.356494,29.3140624 137.071982,29.8341696 137.87,30.194 C138.69,30.57 139.598,30.757 140.594,30.757 C141.574,30.757 142.497,30.581 143.363,30.229 C144.20405,29.8920924 144.972367,29.3964039 145.626,28.769 C146.275436,28.1406862 146.801795,27.3965927 147.178,26.575 C147.568,25.732 147.787,24.828 147.833047,23.863 L147.833047,23.541 C147.836462,22.5793287 147.64883,21.626552 147.281,20.738 C146.924776,19.8669136 146.406243,19.0714665 145.753,18.394 C145.098115,17.7173243 144.317544,17.1748653 143.455,16.797 C142.55335,16.4020286 141.578327,16.202321 140.594,16.211 C139.598,16.211 138.69,16.406 137.87,16.797 C137.05,17.187 136.35,17.72 135.768,18.394 C135.176446,19.0839367 134.720156,19.8791358 134.423,20.738 C134.107304,21.6386095 133.948335,22.5866733 133.953,23.541 L133.952,23.541 Z M182.672,34.549 C182.258,34.963 181.802,35.407 181.304,35.882 C180.806,36.357 180.258,36.802 179.661,37.215 C179.060086,37.6306306 178.412285,37.9739985 177.731,38.238 C177.019316,38.5101659 176.262922,38.6465202 175.501,38.6402233 C173.418,38.6402233 171.499,38.25 169.745,37.468 C168.033877,36.7174437 166.493311,35.6266629 165.217,34.262 C163.954,32.906 162.965,31.309 162.253,29.47 C161.541,27.632 161.184,25.656 161.184,23.541 C161.184,21.411 161.541,19.431 162.253,17.601 C162.965,15.771 163.953,14.177 165.217,12.821 C166.491807,11.4576325 168.03296,10.3705207 169.745,9.627 C171.499,8.853 173.418,8.466 175.501,8.466 C176.344,8.466 177.114,8.589 177.811,8.834 C178.48356,9.06701314 179.124229,9.38348438 179.718,9.776 C180.293,10.159 180.821,10.592 181.304,11.074 C181.787,11.557 182.242,12.028 182.671,12.488 L182.671,1.985 C182.671,1.495 182.821,1.082 183.119,0.745 C183.419,0.407 183.866,0.239 184.464,0.239 L189.634,0.239 C189.834,0.239 190.044,0.281 190.266,0.365 C190.489,0.45 190.692,0.568 190.876,0.722 C191.059,0.875 191.209,1.059 191.324,1.273 C191.438,1.488 191.496,1.725 191.496,1.985 L191.496,36.342 C191.496,37.522 190.876,38.112 189.634,38.112 L185.13,38.112 C184.824,38.112 184.586,38.072 184.418,37.996 C184.251507,37.9209725 184.105678,37.8067111 183.993,37.663 C183.864998,37.4943463 183.760695,37.3089572 183.683,37.112 C183.57434,36.8525396 183.459305,36.5957951 183.338,36.342 L182.671,34.549 L182.672,34.549 Z M169.457,23.541 C169.449319,24.5073972 169.608662,25.4678563 169.928,26.38 C170.243,27.26 170.691,28.023 171.273,28.666 C171.861786,29.3141734 172.577624,29.8342875 173.376,30.194 C174.196,30.57 175.103,30.757 176.099,30.757 C177.079,30.757 178.002,30.581 178.868,30.229 C179.709405,29.8922056 180.478071,29.3965114 181.132,28.769 C181.780719,28.1405139 182.306392,27.3964316 182.682,26.575 C183.073,25.732 183.292,24.828 183.338047,23.863 L183.338047,23.541 C183.341462,22.5793287 183.15383,21.626552 182.786,20.738 C182.429776,19.8669136 181.911243,19.0714665 181.258,18.394 C180.603115,17.7173243 179.822544,17.1748653 178.96,16.797 C178.05835,16.4020286 177.083327,16.202321 176.099,16.211 C175.103,16.211 174.195,16.406 173.376,16.797 C172.556,17.187 171.855,17.72 171.273,18.394 C170.681446,19.0839367 170.225156,19.8791358 169.928,20.738 C169.612304,21.6386095 169.453335,22.5866733 169.458,23.541 L169.457,23.541 Z M197.61,2.008 C197.61,1.518 197.732,1.105 197.977,0.768 C198.223,0.43 198.644,0.262 199.241,0.262 L204.871,0.262 C205.025,0.262 205.186,0.304 205.354,0.388 C205.53064,0.47858728 205.690048,0.599412781 205.825,0.745 C205.971,0.898 206.093,1.082 206.193,1.296 C206.293,1.511 206.343,1.748 206.343,2.008 L206.343,36.342 C206.343,36.924 206.178,37.364 205.848,37.663 C205.519,37.962 205.094,38.111 204.573,38.111 L199.241,38.111 C198.644,38.111 198.223,37.961 197.977,37.663 C197.732,37.364 197.61,36.923 197.61,36.342 L197.61,2.008 Z M236.31,34.618 C234.977528,35.8489008 233.436907,36.8332047 231.76,37.525 C230.061862,38.2247836 228.24165,38.5803285 226.405,38.5711789 C224.305,38.5711789 222.322,38.188 220.453,37.421 C218.626258,36.6826818 216.957101,35.6027189 215.535,34.239 C214.118357,32.8727542 212.979132,31.2455806 212.18,29.447 C211.352,27.609 210.939,25.61 210.939,23.449 C210.939,22.101 211.103,20.795 211.433,19.531 C211.751808,18.2942675 212.222734,17.1018372 212.835,15.981 C213.440193,14.8777996 214.181306,13.8548229 215.041,12.936 C215.898372,12.0156296 216.876226,11.2153837 217.948,10.557 C219.038426,9.89015271 220.213185,9.37222298 221.441,9.017 C222.732907,8.64453856 224.071492,8.45898881 225.416,8.46580851 C226.688,8.46580851 227.921,8.635 229.116,8.972 C230.311,9.309 231.434,9.784 232.483,10.396 C233.533,11.009 234.493,11.745 235.367,12.603 C236.22886,13.4467044 236.985062,14.391958 237.619,15.418 C238.247322,16.4365811 238.738241,17.5337512 239.079,18.681 C239.423,19.838 239.596,21.029 239.596,22.254 C239.596,23.051 239.584,23.702 239.561,24.208 C239.538,24.713 239.419,25.116 239.205,25.414 C238.99,25.714 238.635,25.92 238.136,26.034 C237.638,26.15 236.906,26.207 235.942,26.207 L219.396,26.207 C219.549,27.187 219.859,28.007 220.326,28.667 C220.758565,29.2916967 221.308842,29.826009 221.946,30.24 C222.559,30.631 223.21,30.91 223.9,31.08 C224.538586,31.2417655 225.194267,31.3263695 225.853,31.332 C226.405,31.332 226.971,31.274 227.553,31.16 C228.126643,31.0474249 228.691437,30.8936941 229.243,30.7 C229.758808,30.5207289 230.258303,30.297579 230.736,30.033 C231.188,29.781 231.552,29.516 231.828,29.241 C232.073,29.041 232.284,28.892 232.46,28.792 C232.636,28.692 232.824,28.643 233.023,28.643 C233.223,28.643 233.425,28.713 233.633,28.85 C233.88491,29.0261282 234.11932,29.2260462 234.333,29.447 L236.769,32.205 C236.937,32.405 237.045,32.585 237.091,32.745 C237.137,32.906 237.16,33.071 237.16,33.239 C237.16,33.546 237.075,33.81 236.907,34.032 C236.737168,34.2553251 236.535721,34.4527296 236.309,34.618 L236.31,34.618 Z M225.256,15.475 C224.658,15.475 224.08,15.594 223.521,15.831 C222.953678,16.0732131 222.423435,16.3943891 221.946,16.785 C221.456,17.183 221.016,17.635 220.625,18.141 C220.251863,18.6180574 219.931965,19.1344546 219.671,19.681 L231.414,19.681 C231.106061,19.1048386 230.756815,18.5517263 230.369,18.026 C230.000238,17.5272136 229.567534,17.0790442 229.082,16.693 C228.585277,16.3024266 228.025589,15.999417 227.427,15.797 C226.807,15.582 226.083,15.475 225.256,15.475 L225.256,15.475 Z" id="Shape"></path>
        </g>
    </g>
</svg>